<svg width="34" height="21" viewBox="0 0 34 21" fill="none" xmlns="http://www.w3.org/2000/svg">
<g clip-path="url(#clip0_1_12301)">
<path fill-rule="evenodd" clip-rule="evenodd" d="M12.1317 18.728H21.1245V2.2417H12.1317V18.728Z" fill="#FF5F00"/>
<path fill-rule="evenodd" clip-rule="evenodd" d="M12.7028 10.4849C12.7028 7.1402 14.2378 4.16133 16.6282 2.24172C14.8799 0.837625 12.6742 0 10.2767 0C4.601 0 0.00012207 4.69431 0.00012207 10.4849C0.00012207 16.2754 4.601 20.9697 10.2767 20.9697C12.6742 20.9697 14.8799 20.1321 16.6282 18.728C14.2378 16.8081 12.7028 13.8295 12.7028 10.4849Z" fill="#EB001B"/>
<path fill-rule="evenodd" clip-rule="evenodd" d="M32.9354 16.9819V16.575H32.8312L32.7116 16.8549L32.5917 16.575H32.4875V16.9819H32.5608V16.6749L32.6733 16.9396H32.7495L32.862 16.6743V16.9819H32.9354ZM32.2756 16.9819V16.6443H32.4092V16.5756H32.0695V16.6443H32.2028V16.9819H32.2756ZM33.2563 10.4848C33.2563 16.2753 28.6551 20.9696 22.9797 20.9696C20.5821 20.9696 18.3762 20.132 16.6282 18.7279C19.0185 16.8083 20.5536 13.8294 20.5536 10.4848C20.5536 7.14037 19.0185 4.1615 16.6282 2.2416C18.3762 0.837503 20.5821 -0.00012207 22.9797 -0.00012207C28.6551 -0.00012207 33.2563 4.69419 33.2563 10.4848Z" fill="#F79E1B"/>
</g>
<defs>
<clipPath id="clip0_1_12301">
<rect width="33.6" height="21" fill="white"/>
</clipPath>
</defs>
</svg>
